<?xml version="1.0" encoding="UTF-8"?>
<!DOCTYPE svg PUBLIC "-//W3C//DTD SVG 1.1//EN" "http://www.w3.org/Graphics/SVG/1.1/DTD/svg11.dtd">
<svg xmlns="http://www.w3.org/2000/svg" version="1.1" width="130px" height="73px" style="shape-rendering:geometricPrecision; text-rendering:geometricPrecision; image-rendering:optimizeQuality; fill-rule:evenodd; clip-rule:evenodd" xmlns:xlink="http://www.w3.org/1999/xlink">
<g><path style="opacity:0.481" fill="#606060" d="M 63.5,4.5 C 64.6491,4.79106 65.3158,5.62439 65.5,7C 65.1667,7.83333 64.8333,8.66667 64.5,9.5C 63.5481,7.95467 63.2148,6.28801 63.5,4.5 Z"/></g>
<g><path style="opacity:0.588" fill="#5f5f5f" d="M 69.5,10.5 C 69.1667,10.5 68.8333,10.5 68.5,10.5C 66.1115,8.71022 65.9448,6.71022 68,4.5C 69.1095,6.24287 70.6095,7.5762 72.5,8.5C 71.9953,9.91851 70.9953,10.5852 69.5,10.5 Z"/></g>
<g><path style="opacity:0.89" fill="#eaa400" d="M 68.5,10.5 C 68.8333,10.5 69.1667,10.5 69.5,10.5C 70.8687,14.9165 73.8687,16.5832 78.5,15.5C 79.0043,22.5313 79.8376,29.5313 81,36.5C 82.2146,29.4958 83.3813,22.4958 84.5,15.5C 86.1667,15.5 87.8333,15.5 89.5,15.5C 88.5982,24.2433 87.2649,32.91 85.5,41.5C 85.539,44.089 84.539,46.089 82.5,47.5C 80.5648,46.8505 78.5648,46.5172 76.5,46.5C 75.3815,38.1703 74.2148,29.837 73,21.5C 72.8622,27.5813 72.1956,33.5813 71,39.5C 70.1841,40.8228 69.0174,41.4894 67.5,41.5C 65.2078,42.6861 62.8744,42.6861 60.5,41.5C 58.8267,40.657 57.66,39.3237 57,37.5C 56.0946,29.0887 56.4279,20.7554 58,12.5C 61.2432,10.7375 64.7432,10.0708 68.5,10.5 Z"/></g>
<g><path style="opacity:0.914" fill="#e9a301" d="M 37.5,39.5 C 37.0023,42.3263 35.6689,44.6597 33.5,46.5C 32.1667,46.5 31.5,45.8333 31.5,44.5C 31.5,42.5 31.5,40.5 31.5,38.5C 31.3337,31.4921 31.5004,24.4921 32,17.5C 33.4007,15.8078 35.2341,15.1412 37.5,15.5C 37.5,23.5 37.5,31.5 37.5,39.5 Z"/></g>
<g><path style="opacity:0.87" fill="#eaa300" d="M 41.5,46.5 C 41.1387,44.3789 41.8054,42.2122 43.5,40C 42.4366,38.8118 41.1033,38.3118 39.5,38.5C 39.5,30.8333 39.5,23.1667 39.5,15.5C 41.924,15.1924 44.2573,15.5258 46.5,16.5C 47.6655,20.4943 48.8321,24.4943 50,28.5C 50.499,24.1794 50.6657,19.8461 50.5,15.5C 52.1667,15.5 53.8333,15.5 55.5,15.5C 55.5,25.8333 55.5,36.1667 55.5,46.5C 53.2075,46.7564 51.0408,46.4231 49,45.5C 47.6667,40.1667 46.3333,34.8333 45,29.5C 44.5006,35.1569 44.3339,40.8236 44.5,46.5C 43.5,46.5 42.5,46.5 41.5,46.5 Z"/></g>
<g><path style="opacity:0.875" fill="#eaa300" d="M 100.5,47.5 C 100.167,46.8333 99.8333,46.1667 99.5,45.5C 98.8876,42.3027 96.8876,40.9694 93.5,41.5C 93.5,42.8333 93.5,44.1667 93.5,45.5C 93.1667,46.5 92.5,47.1667 91.5,47.5C 89.901,47.7678 88.5676,47.4345 87.5,46.5C 87.6287,44.7839 87.962,43.1172 88.5,41.5C 89.8333,32.8333 91.1667,24.1667 92.5,15.5C 95.7107,15.012 98.544,15.6787 101,17.5C 102.548,27.506 104.048,37.506 105.5,47.5C 103.833,47.5 102.167,47.5 100.5,47.5 Z M 95.5,27.5 C 97.2655,30.1226 97.9321,33.1226 97.5,36.5C 96.325,36.719 95.325,36.3857 94.5,35.5C 95.3928,32.9159 95.7261,30.2492 95.5,27.5 Z M 99.5,45.5 C 97.6119,46.2751 95.6119,46.2751 93.5,45.5C 93.5,44.1667 93.5,42.8333 93.5,41.5C 96.8876,40.9694 98.8876,42.3027 99.5,45.5 Z"/></g>
<g><path style="opacity:0.755" fill="#605f5e" d="M 31.5,38.5 C 31.5,40.5 31.5,42.5 31.5,44.5C 30.3068,46.9696 29.8068,49.6363 30,52.5C 30.926,50.3083 32.0927,48.3083 33.5,46.5C 35.6689,44.6597 37.0023,42.3263 37.5,39.5C 38.1667,39.1667 38.8333,38.8333 39.5,38.5C 41.1033,38.3118 42.4366,38.8118 43.5,40C 41.8054,42.2122 41.1387,44.3789 41.5,46.5C 39.2301,51.5795 37.8968,56.9129 37.5,62.5C 36.5,62.5 35.5,62.5 34.5,62.5C 34.5174,57.7046 35.0174,53.038 36,48.5C 34.0797,51.3388 32.4131,54.3388 31,57.5C 28.7783,60.3033 26.9449,60.1366 25.5,57C 26.4929,54.5472 26.6595,52.0472 26,49.5C 24.487,54.5717 22.3203,59.2384 19.5,63.5C 18.5,63.1667 17.8333,62.5 17.5,61.5C 20.2246,54.3839 23.2246,47.3839 26.5,40.5C 27.8498,39.0499 29.5165,38.3832 31.5,38.5 Z M 31.5,44.5 C 31.5,45.8333 32.1667,46.5 33.5,46.5C 32.0927,48.3083 30.926,50.3083 30,52.5C 29.8068,49.6363 30.3068,46.9696 31.5,44.5 Z"/></g>
<g><path style="opacity:0.716" fill="#605f5f" d="M 85.5,41.5 C 86.5,41.5 87.5,41.5 88.5,41.5C 87.962,43.1172 87.6287,44.7839 87.5,46.5C 85.5381,48.425 84.7048,50.7583 85,53.5C 86.6667,50.8333 88.3333,50.8333 90,53.5C 92.2188,50.261 95.0522,49.5943 98.5,51.5C 98.1489,53.8695 97.9822,56.2028 98,58.5C 99.4447,52.5311 102.611,51.1978 107.5,54.5C 108.863,53.1207 109.863,53.2874 110.5,55C 108.037,57.8571 105.703,60.8571 103.5,64C 101.299,64.8249 99.4659,64.3249 98,62.5C 94.7825,62.3785 91.4491,62.7119 88,63.5C 86.0194,63.3708 84.3528,62.7042 83,61.5C 80.8152,64.6855 77.9819,65.3522 74.5,63.5C 74.6567,62.1266 74.49,60.7932 74,59.5C 73.3203,61.513 71.987,62.8464 70,63.5C 68.6667,62.1667 67.3333,62.1667 66,63.5C 64.8484,61.4883 63.6817,61.3217 62.5,63C 59.8333,63.6667 57.1667,63.6667 54.5,63C 53.7734,61.6012 53.2734,60.1012 53,58.5C 52,60.8333 50.3333,62.5 48,63.5C 45.595,63.036 43.095,62.8693 40.5,63C 39.1894,58.2536 40.5227,54.2536 44.5,51C 47.0451,50.3854 49.3785,50.8854 51.5,52.5C 50.3595,54.0778 49.8595,55.7445 50,57.5C 52.0229,55.2307 52.8563,52.5641 52.5,49.5C 54.861,49.6741 57.1944,50.0074 59.5,50.5C 58.3325,53.8194 57.4992,57.1527 57,60.5C 58.4407,57.1202 60.2741,53.9535 62.5,51C 64.8473,50.6664 67.1806,50.833 69.5,51.5C 69.5,52.5 69.5,53.5 69.5,54.5C 70.2674,53.828 70.9341,52.9947 71.5,52C 74.0298,52.7748 76.3631,52.4415 78.5,51C 79.0219,51.5613 79.3552,52.228 79.5,53C 78.2088,55.0503 77.7088,57.217 78,59.5C 80.0017,55.6582 81.5017,51.6582 82.5,47.5C 84.539,46.089 85.539,44.089 85.5,41.5 Z M 69.5,54.5 C 69.6882,56.1033 69.1882,57.4366 68,58.5C 67.6522,56.8602 68.1522,55.5268 69.5,54.5 Z M 103.5,55.5 C 104.229,57.5433 103.729,59.5433 102,61.5C 101.591,59.3049 102.091,57.3049 103.5,55.5 Z"/></g>
<g><path style="opacity:0.684" fill="#464746" d="M 60.5,41.5 C 62.8744,42.6861 65.2078,42.6861 67.5,41.5C 69.3495,45.4043 68.1829,48.0709 64,49.5C 61.0596,47.7368 59.8929,45.0701 60.5,41.5 Z"/></g>
<g><path style="opacity:0.611" fill="#5c5b5b" d="M 93.5,45.5 C 95.6119,46.2751 97.6119,46.2751 99.5,45.5C 99.8333,46.1667 100.167,46.8333 100.5,47.5C 100.134,48.6946 99.301,49.3613 98,49.5C 96.2703,48.3507 94.6037,48.3507 93,49.5C 92.2828,48.9558 91.7828,48.2891 91.5,47.5C 92.5,47.1667 93.1667,46.5 93.5,45.5 Z"/></g>
</svg>
